<svg role="img" aria-labelledby="title desc" xmlns="http://www.w3.org/2000/svg" width="1254" height="1254" viewBox="0 0 1254 1254" version="1.1">
<title id="title">Grand Hotel traced logo</title>
<desc id="desc">Vector trace of the provided Grand Hotel logo image.</desc>
	<path d="M 523.500 277.964 C 471.434 281.461, 426.716 297.444, 388 326.396 C 377.093 334.552, 355.912 355.173, 347.719 365.610 C 322.003 398.373, 305.290 439.590, 299.917 483.500 C 298.152 497.926, 298.399 527.993, 300.406 542.965 C 307.717 597.502, 333.187 647.449, 372.981 685.287 C 407.305 717.923, 452.600 741.808, 498.701 751.581 L 506.901 753.319 512.527 748.980 C 515.620 746.593, 519.469 742.726, 521.078 740.386 C 531.617 725.069, 524.081 710.867, 497 695.012 C 469.671 679.011, 462.451 674.485, 452.793 667.298 C 401.830 629.369, 372.874 569.899, 370.362 498 C 368.565 446.546, 384.231 394.666, 412.497 358.468 C 421.218 347.298, 438.069 331.495, 449.175 324.069 C 480.002 303.457, 514.028 293.971, 552.446 295.278 C 587.336 296.465, 614.398 305.617, 637.592 324.073 C 645.913 330.695, 653.072 339.296, 659.992 350.986 C 662.926 355.944, 665.710 360, 666.178 360 C 666.646 360, 666.910 346.387, 666.765 329.750 L 666.500 299.500 655 295.671 C 612.819 281.628, 564.944 275.181, 523.500 277.964 M 736.490 341.500 C 728.949 362.409, 717.313 374.756, 689.818 391.024 C 662.764 407.030, 651 422.672, 651 442.636 L 651 446 607.500 446 L 564 446 564 449.371 C 564 452.686, 564.087 452.753, 569.250 453.411 C 576.628 454.350, 584.436 458.352, 587.008 462.513 C 591.514 469.804, 591.441 468.277, 591.982 566.805 L 592.500 661.109 608.609 666.491 C 617.468 669.451, 630.406 674.334, 637.359 677.342 L 650 682.812 650 631.906 L 650 581 736.547 581 L 823.094 581 822.760 656.250 C 822.458 724.071, 822.254 732.080, 820.693 737.373 C 817.491 748.231, 812.679 752.557, 801.045 755.036 C 793.736 756.594, 793.500 756.736, 793.500 759.572 L 793.500 762.500 851 762.500 L 908.500 762.500 908.808 759.320 C 909.109 756.218, 908.999 756.125, 904.308 755.509 C 892.108 753.909, 885.244 748.841, 882.276 739.242 C 880.614 733.868, 880.500 725.267, 880.500 605 C 880.500 465.092, 880.305 470.021, 886.164 461.932 C 889.636 457.139, 895.021 454.472, 903.250 453.470 C 908.980 452.772, 909 452.758, 909 449.385 L 909 446 866.500 446 L 824 446 824 441.710 C 824 435.958, 821.540 426.721, 818.218 420 C 814.964 413.415, 803.685 401.854, 795.971 397.197 C 792.962 395.380, 785.584 390.973, 779.576 387.405 C 756.631 373.776, 746.698 362.868, 738.226 342 C 737.268 339.639, 737.171 339.611, 736.490 341.500 M 733.944 379.747 C 728.647 388.138, 717.814 397.710, 703.641 406.520 C 688.490 415.938, 681.266 423.031, 677.982 431.715 C 675.613 437.980, 675.011 445.823, 676.341 453.097 L 677.181 457.694 670.841 458.288 C 662.356 459.084, 657.074 460.973, 654.873 464 C 650.484 470.036, 650 475.863, 650 522.710 L 650 567 736.500 567 L 823 567 822.992 524.750 C 822.985 480.980, 822.408 472.681, 818.900 465.804 C 816.496 461.091, 813.209 459.519, 803.709 458.535 C 798.018 457.946, 796.999 457.562, 797.414 456.166 C 799.921 447.736, 800.203 444.708, 799.032 438.758 C 796.308 424.912, 790.088 417.680, 770.913 406.061 C 757.272 397.795, 746.571 388.426, 741.030 379.895 L 737.388 374.291 733.944 379.747 M 543.500 568.110 C 484.707 572.536, 441.615 593.133, 439.231 617.947 C 438.259 628.066, 443.370 637.246, 455 646.270 C 463.869 653.151, 486.154 664.323, 513.500 675.597 C 547.079 689.442, 564.290 699.202, 576 711.039 C 599.070 734.362, 592.916 764.076, 559.857 788.987 L 551.877 795 609.845 795 L 667.814 795 671.778 790.250 C 678.235 782.512, 683.732 773.317, 686.033 766.400 C 687.774 761.169, 688.124 758.126, 687.845 750.629 C 687.525 742.021, 687.182 740.699, 683.170 732.606 C 679.884 725.978, 677.084 722.116, 671.561 716.594 C 652.529 697.561, 626.376 685.607, 565.500 668.116 C 526.186 656.820, 504.293 647.363, 492.119 636.417 C 483.256 628.448, 480.558 620.472, 483.409 610.665 C 487.860 595.355, 514.070 582.296, 549.992 577.491 C 556.321 576.645, 565.438 575.426, 570.250 574.782 C 578.767 573.643, 579 573.541, 579 570.948 C 579 568.422, 578.683 568.252, 572.853 567.642 C 565.542 566.878, 558.337 566.993, 543.500 568.110 M 772.493 611.405 C 769.197 614.843, 760.200 622.300, 752.500 627.975 C 744.800 633.650, 735.831 640.590, 732.568 643.397 C 719.503 654.638, 708.530 672.288, 705.376 687.134 C 703.453 696.188, 704.007 711.174, 706.545 718.750 C 708.174 723.612, 710 725.712, 710 722.724 C 710 720.529, 723.009 698.872, 729.265 690.653 C 732.550 686.337, 739.486 677.850, 744.677 671.793 C 749.869 665.736, 755.281 659.021, 756.705 656.870 C 758.128 654.719, 759.505 653.171, 759.764 653.430 C 760.606 654.272, 751.937 669.124, 740.755 686 C 728.111 705.080, 715.266 730.119, 712.098 741.862 C 710.657 747.202, 710.007 752.109, 710.202 756.166 C 710.547 763.311, 712.543 765.210, 713.512 759.314 C 714.391 753.965, 719.917 736.489, 721.329 734.596 C 721.973 733.731, 726.074 732.115, 730.442 731.004 C 744.006 727.554, 752.284 722.793, 762.547 712.539 C 769.864 705.229, 772.394 701.875, 775.776 695 C 783.020 680.276, 784.388 673.396, 784.328 652 C 784.284 636.425, 783.863 631.304, 781.667 619.612 C 780.231 611.974, 778.929 605.595, 778.772 605.438 C 778.615 605.281, 775.789 607.966, 772.493 611.405 M 642.500 835.589 C 638.650 836.896, 633.587 838.440, 631.250 839.021 C 626.060 840.311, 625.816 841.555, 630.576 842.448 C 636.070 843.479, 637 846.802, 637 865.397 L 637 880.859 632.750 878.522 C 614.312 868.383, 588.579 877.417, 579.064 897.371 C 569.266 917.918, 575.183 943.674, 592.021 953.768 C 599.090 958.006, 602.858 958.990, 612 958.985 C 620.530 958.980, 627.016 956.559, 633.315 951.028 L 637 947.793 637 952.837 C 637 955.612, 637.337 958.089, 637.750 958.343 C 638.920 959.061, 662 954.804, 662 953.869 C 662 953.412, 660.763 952.744, 659.250 952.385 C 652.598 950.804, 653 954.763, 653 890.845 C 653 836.380, 652.898 833.006, 651.250 833.107 C 650.288 833.166, 646.350 834.283, 642.500 835.589 M 1043.750 836.896 C 1037.838 838.857, 1033 840.714, 1033 841.023 C 1033 841.333, 1034.456 842.017, 1036.236 842.543 C 1038.064 843.084, 1040.014 844.587, 1040.721 846 C 1042.382 849.324, 1042.569 948.069, 1040.920 951.150 C 1040.325 952.261, 1038.282 953.820, 1036.379 954.615 C 1034.476 955.410, 1033.119 956.384, 1033.362 956.780 C 1034.035 957.873, 1066 957.062, 1066 955.952 C 1066 955.429, 1065.133 955, 1064.073 955 C 1063.012 955, 1061.212 953.814, 1060.073 952.365 C 1058.030 949.768, 1058 948.897, 1058 891.365 C 1058 836.383, 1057.899 833.010, 1056.250 833.166 C 1055.287 833.257, 1049.662 834.936, 1043.750 836.896 M 242.381 838.977 C 203.293 849.225, 184.347 890.094, 202.085 925.900 C 208.962 939.784, 221.041 950.052, 237.165 955.720 C 243.268 957.865, 246.817 958.376, 258.288 958.763 C 275.355 959.340, 286.359 957.157, 299.147 950.659 L 307.500 946.415 308 928.358 C 308.547 908.610, 308.776 907.829, 314.750 905.332 C 316.538 904.584, 318 903.754, 318 903.487 C 318 903.219, 309.225 903, 298.500 903 C 280.376 903, 274.333 903.902, 282.363 905.408 C 288.930 906.640, 289.463 908.198, 289.817 927.199 C 290.179 946.627, 290.293 946.309, 281.679 950.086 C 273.982 953.461, 260.403 953.925, 251.193 951.127 C 229.351 944.493, 216 923.949, 216 896.974 C 216 884.512, 217.410 877.175, 221.518 868.267 C 230.581 848.615, 250.225 838.674, 271.201 843.124 C 283.528 845.740, 294.735 854.562, 299.617 865.493 C 304.028 875.366, 305 874.215, 305 859.123 L 305 846.245 296.250 843.107 C 291.438 841.381, 284.350 839.309, 280.500 838.502 C 270.453 836.396, 251.314 836.635, 242.381 838.977 M 705.022 839.750 C 705.034 840.163, 706.494 841.175, 708.267 842 C 710.040 842.825, 712.049 844.625, 712.731 846 C 714.468 849.504, 714.434 943.895, 712.694 949 C 711.899 951.329, 710.386 953.056, 708.171 954.162 C 706.340 955.077, 704.577 956.089, 704.254 956.412 C 703.931 956.736, 711.842 957, 721.833 957 C 738.578 957, 744.330 956.116, 737.054 954.661 C 731.884 953.627, 731.530 951.794, 731.174 924.250 L 730.848 899 758.924 899 L 787 899 787 923.566 C 787 940.324, 786.630 948.826, 785.837 950.316 C 784.347 953.113, 781.973 954.928, 779.750 954.968 C 778.788 954.986, 778 955.450, 778 956 C 778 956.630, 784.686 957, 796.059 957 C 807.844 957, 813.903 956.653, 813.500 956 C 813.160 955.450, 812.213 955, 811.396 955 C 810.578 955, 808.805 953.895, 807.455 952.545 L 805 950.091 805 898.045 C 805 847.557, 805.059 845.941, 806.975 844.025 C 808.061 842.939, 810.086 841.766, 811.475 841.417 C 817.830 839.822, 812.569 839, 796 839 C 786.100 839, 778 839.360, 778 839.799 C 778 840.239, 779.504 841.142, 781.343 841.807 C 783.208 842.481, 785.198 844.139, 785.843 845.555 C 786.607 847.231, 787 855.557, 787 870.047 L 787 892 758.905 892 L 730.810 892 731.155 868.913 L 731.500 845.825 734.306 843.413 C 735.849 842.086, 737.761 841, 738.556 841 C 739.350 841, 740 840.550, 740 840 C 740 839.371, 733.500 839, 722.500 839 C 712.875 839, 705.010 839.337, 705.022 839.750 M 924.584 861.874 C 919.764 869.124, 913.734 874.728, 907.614 877.647 C 902.094 880.279, 903.161 882.476, 910.017 882.594 L 915.500 882.689 916 914.594 C 916.383 939.028, 916.822 947.085, 917.875 949 C 919.882 952.649, 923.121 955.993, 926.200 957.595 C 929.990 959.567, 938.708 959.316, 943.601 957.094 C 948.236 954.989, 955 948.683, 955 946.467 C 955 944.577, 954.782 944.606, 950.640 947.050 C 946.538 949.470, 940.146 949.951, 936.686 948.100 C 931.851 945.512, 931.551 943.553, 931.196 912.283 L 930.865 883.067 942.183 882.783 L 953.500 882.500 953.500 879.500 L 953.500 876.500 942.250 876.217 L 931 875.934 931 865.467 C 931 859.710, 930.585 855, 930.077 855 C 929.569 855, 927.097 858.093, 924.584 861.874 M 346 875.923 C 343.525 876.921, 338.234 878.572, 334.241 879.593 C 326.738 881.510, 325.608 882.850, 330.410 884.134 C 335.886 885.599, 335.934 885.900, 335.968 919.295 L 336 950.091 333.545 952.545 C 332.195 953.895, 330.170 955, 329.045 955 C 327.920 955, 327 955.450, 327 956 C 327 956.630, 333.667 957, 345 957 C 356.333 957, 363 956.630, 363 956 C 363 955.450, 362.346 955, 361.547 955 C 358.779 955, 355.215 952.768, 354.110 950.343 C 353.386 948.753, 353 938.711, 353 921.456 L 353 895.006 356.566 891.059 C 362.842 884.112, 370.896 883.335, 377.403 889.049 C 379.252 890.672, 381.227 892, 381.793 892 C 382.359 892, 383.987 890.615, 385.411 888.923 C 388.958 884.708, 389.019 878.714, 385.538 876.433 C 378.266 871.668, 367.499 874.341, 358.760 883.080 L 353 888.840 353 881.420 C 353 873.111, 352.992 873.104, 346 875.923 M 420.500 875.337 C 409.067 878.298, 400.713 884.682, 399.449 891.422 C 398.472 896.626, 399.781 898.431, 404.797 898.805 C 409.685 899.169, 412.998 896.522, 413.004 892.250 C 413.008 888.895, 416.090 883.626, 419.202 881.650 C 423.622 878.845, 429.096 878.688, 433.899 881.228 C 440.343 884.636, 442 888.413, 442 899.696 L 442 908.923 437.750 910.033 C 412.333 916.670, 405.954 919.248, 400.311 925.159 C 396.271 929.393, 394.996 932.801, 395.016 939.315 C 395.037 945.863, 398.020 951.365, 403.721 955.372 C 407.300 957.887, 409.105 958.395, 415.856 958.786 C 422.781 959.186, 424.480 958.927, 429.263 956.737 C 432.275 955.358, 436.547 952.597, 438.756 950.601 L 442.772 946.973 443.420 950.426 C 445.206 959.947, 458.964 962.154, 467.250 954.249 C 468.762 952.806, 470 951.005, 470 950.246 C 470 948.947, 468.798 949.039, 464.432 950.674 C 463.845 950.894, 462.183 950.145, 460.739 949.009 L 458.114 946.944 457.807 918.641 L 457.500 890.337 454.467 885.434 C 450.311 878.717, 443.318 875.159, 433 874.512 C 428.524 874.232, 423.484 874.565, 420.500 875.337 M 495.628 875.996 C 492.948 877.043, 487.661 878.697, 483.878 879.671 C 477.078 881.423, 474.472 884, 479.500 884 C 480.875 884, 482.900 884.900, 484 886 C 485.910 887.910, 486 889.333, 486 917.532 C 486 950.787, 485.558 953.538, 480.044 954.641 C 478.370 954.976, 477 955.581, 477 955.985 C 477 957.200, 486.758 957.665, 499.500 957.058 L 511.500 956.487 507.819 954.823 C 502.478 952.410, 502.012 949.606, 502.006 919.866 L 502 894.233 506.110 890.519 C 511.560 885.596, 516.236 883.764, 523.500 883.706 C 533.857 883.622, 539.164 888.111, 541.102 898.594 C 542.566 906.516, 541.904 948.794, 540.271 951.645 C 539.595 952.824, 537.570 954.367, 535.771 955.073 L 532.500 956.356 539 956.944 C 547.631 957.724, 566 957.005, 566 955.887 C 566 955.399, 565.133 955, 564.073 955 C 563.012 955, 561.212 953.814, 560.073 952.365 C 558.096 949.853, 558 948.520, 558 923.681 C 558 902.825, 557.680 896.492, 556.397 891.919 C 553.124 880.253, 545.089 874.655, 531.479 874.557 C 524.413 874.507, 522.686 874.880, 516.979 877.694 C 513.416 879.450, 508.756 882.488, 506.624 884.444 C 504.493 886.400, 502.580 888, 502.374 888 C 502.168 888, 502 884.850, 502 881 C 502 877.150, 501.663 874.021, 501.250 874.047 C 500.837 874.073, 498.308 874.950, 495.628 875.996 M 851 875.330 C 843.119 877.169, 837.324 880.490, 831.388 886.571 C 811.585 906.854, 817.005 943.016, 841.666 955.156 C 847.194 957.878, 849.653 958.463, 857.042 958.816 C 867.987 959.340, 874.916 957.372, 882.946 951.461 C 899.859 939.010, 905.148 912.300, 894.287 894.195 C 889.392 886.035, 885.456 882.341, 877.500 878.440 C 869.245 874.393, 859.777 873.281, 851 875.330 M 988 875.370 C 981.155 877.357, 977.160 879.744, 971.931 884.973 C 954.784 902.120, 954.757 932.971, 971.873 949.298 C 979.093 956.184, 986.215 959, 996.412 959 C 1008.419 959, 1017.562 954.451, 1024.470 945.041 C 1029.051 938.801, 1028.209 936.441, 1023.135 941.299 C 1016.992 947.181, 1013.532 948.482, 1004 948.491 C 996.520 948.499, 994.939 948.170, 990.824 945.751 C 981.753 940.419, 976.676 930.769, 975.302 916.250 L 974.711 910 984.105 909.883 C 989.272 909.819, 1000.025 909.814, 1008 909.872 C 1027.724 910.015, 1028 909.940, 1028 904.458 C 1028 893.901, 1019.747 881.289, 1010.134 877.153 C 1003.937 874.487, 993.844 873.674, 988 875.370 M 609.558 880.492 C 604.038 882.458, 600.932 884.992, 597.784 890.096 C 589.562 903.428, 590.140 928.611, 598.947 940.768 C 607.071 951.984, 623.291 954.153, 633.057 945.330 L 637 941.767 637 917.818 C 637 902.132, 636.614 893.115, 635.882 891.684 C 633.455 886.945, 627.514 881.933, 622.586 880.470 C 616.561 878.680, 614.634 878.684, 609.558 880.492 M 853.211 880.078 C 848.376 881.547, 842.565 887.916, 839.929 894.635 C 837.948 899.686, 837.620 902.375, 837.564 914 C 837.483 931.062, 839.766 939.613, 846.303 946.728 C 851.294 952.159, 855.221 954, 861.818 954 C 874.306 954, 882.320 939.928, 882.320 918 C 882.320 891.826, 869.501 875.126, 853.211 880.078 M 988.316 880.888 C 982.174 883.758, 976 894.373, 976 902.063 L 976 904.874 993.750 904.687 L 1011.500 904.500 1011.388 898.817 C 1011.258 892.201, 1007.941 884.649, 1003.864 881.692 C 999.984 878.877, 993.354 878.535, 988.316 880.888 M 433.645 915.672 C 422.812 918.777, 417.419 921.583, 414.223 925.778 C 411.936 928.779, 411.503 930.334, 411.516 935.494 C 411.528 939.718, 412.099 942.502, 413.344 944.403 C 416.999 949.981, 426.947 951.656, 434.552 947.975 C 441.994 944.372, 442.090 944.104, 441.778 927.851 L 441.500 913.420 433.645 915.672" stroke="none" fill="#243d2b" fill-rule="evenodd"/>
</svg>